<svg width="36" height="55" viewBox="0 0 36 55" fill="none" xmlns="http://www.w3.org/2000/svg">
<path d="M32.9825 22.988L11.4725 2.67797C10.5538 1.81117 9.40133 1.23226 8.15747 1.01263C6.91361 0.792993 5.6327 0.942265 4.47266 1.44201C3.31262 1.94175 2.32423 2.77012 1.6294 3.82494C0.934563 4.87976 0.56369 6.11488 0.562501 7.37798V47.998C0.561737 49.2619 0.931168 50.4984 1.62525 51.5547C2.31932 52.6111 3.30771 53.441 4.46814 53.9419C5.62857 54.4429 6.91024 54.5931 8.15503 54.3738C9.39982 54.1545 10.5532 53.5754 11.4725 52.708L32.9825 32.388C33.6217 31.7833 34.1307 31.0546 34.4786 30.2465C34.8266 29.4384 35.0061 28.5678 35.0061 27.688C35.0061 26.8081 34.8266 25.9376 34.4786 25.1294C34.1307 24.3213 33.6217 23.5926 32.9825 22.988Z" fill="#A0CBC8"/>
</svg>
