<svg width="35" height="55" viewBox="0 0 35 55" fill="none" xmlns="http://www.w3.org/2000/svg">
<path d="M2.57996 32.3983L24.09 52.7083C25.0087 53.5751 26.1612 54.154 27.405 54.3736C28.6489 54.5932 29.9298 54.444 31.0898 53.9442C32.2499 53.4445 33.2383 52.6161 33.9331 51.5613C34.6279 50.5065 34.9988 49.2714 35 48.0082L35 7.38825C35.0008 6.1243 34.6313 4.88782 33.9373 3.83149C33.2432 2.77516 32.2548 1.94526 31.0944 1.44428C29.9339 0.943306 28.6523 0.793159 27.4075 1.01246C26.1627 1.23176 25.0093 1.81085 24.09 2.67823L2.57996 22.9982C1.94082 23.6029 1.4318 24.3316 1.08386 25.1397C0.735934 25.9478 0.556399 26.8184 0.556399 27.6982C0.556399 28.5781 0.735934 29.4487 1.08386 30.2568C1.4318 31.0649 1.94082 31.7936 2.57996 32.3983Z" fill="#A0CBC8"/>
</svg>
