<svg width="31" height="26" viewBox="0 0 31 26" fill="none" xmlns="http://www.w3.org/2000/svg">
<path d="M30.2939 11.9123L19.4598 1.07802C19.1506 0.768754 18.7384 0.598999 18.2989 0.598999C17.8589 0.598999 17.4469 0.768998 17.1377 1.07802L16.154 2.06191C15.845 2.37069 15.6748 2.78313 15.6748 3.22288C15.6748 3.66239 15.845 4.08873 16.154 4.3975L22.4745 10.7318H2.39415C1.4888 10.7318 0.773438 11.4406 0.773438 12.3462V13.7372C0.773438 14.6428 1.4888 15.423 2.39415 15.423H22.5462L16.1543 21.7927C15.8452 22.102 15.675 22.5032 15.675 22.943C15.675 23.3822 15.8452 23.7893 16.1543 24.0983L17.1379 25.079C17.4472 25.3883 17.8591 25.5568 18.2991 25.5568C18.7386 25.5568 19.1508 25.3861 19.4601 25.0768L30.2941 14.2428C30.6041 13.9325 30.7746 13.5184 30.7734 13.0782C30.7744 12.6365 30.6041 12.2221 30.2939 11.9123Z" fill="#00A49C"/>
</svg>
