<svg width="60" height="61" viewBox="0 0 60 61" fill="none" xmlns="http://www.w3.org/2000/svg">
<g clip-path="url(#clip0)">
<path d="M30 0.919922C13.457 0.919922 0 14.3782 0 30.9199C0 47.4616 13.457 60.9199 30 60.9199C46.543 60.9199 60 47.4616 60 30.9199C60 14.3782 46.543 0.919922 30 0.919922ZM30 58.42C14.8364 58.42 2.49996 46.0835 2.49996 30.9199C2.49996 15.7563 14.8364 3.41988 30 3.41988C45.1636 3.41988 57.5 15.7563 57.5 30.9199C57.5 46.0835 45.1636 58.42 30 58.42Z" fill="white"/>
<path d="M41.9263 29.8687L24.4263 18.6187C24.043 18.3685 23.5474 18.355 23.1519 18.5722C22.749 18.792 22.5 19.212 22.5 19.6697V42.1697C22.5 42.6274 22.749 43.0474 23.1519 43.2672C23.3374 43.3685 23.545 43.4198 23.75 43.4198C23.9844 43.4198 24.2213 43.3538 24.4263 43.2208L41.9263 31.9708C42.2828 31.7413 42.5 31.3445 42.5 30.9197C42.5 30.4949 42.2828 30.0982 41.9263 29.8687ZM25 39.8796V21.9598L38.938 30.9197L25 39.8796Z" fill="white"/>
</g>
<defs>
<clipPath id="clip0">
<rect width="60" height="60" fill="white" transform="translate(0 0.919922)"/>
</clipPath>
</defs>
</svg>
