<svg width="40" height="40" viewBox="0 0 40 40" fill="none" xmlns="http://www.w3.org/2000/svg">
<g clip-path="url(#clip0)">
<path d="M38.5918 23.155C39.7851 13.11 38.0185 6.76837 34.8318 3.90004L34.8335 3.89837C29.6901 -0.999959 12.3201 -1.72496 6.1668 4.11837C3.40347 6.97671 2.43013 11.1717 2.32347 16.365C2.2168 21.56 2.09013 31.2917 11.1585 33.9317H11.1668L11.1585 37.9634C11.1585 37.9634 11.0968 39.5967 12.1401 39.925C13.3335 40.3117 13.8735 39.5534 17.5851 35.12C23.7918 35.6584 28.5585 34.425 29.1001 34.245C30.3535 33.825 37.4451 32.8867 38.5918 23.155ZM18.1968 32.2834C18.1968 32.2834 14.2685 37.1817 13.0468 38.4534C12.6468 38.8667 12.2085 38.8284 12.2151 38.0084C12.2151 37.47 12.2451 31.315 12.2451 31.315C4.5568 29.1117 5.01013 20.825 5.09347 16.49C5.1768 12.1534 5.97013 8.60171 8.31013 6.21004C13.7085 1.14837 28.9368 2.28004 32.8168 5.92671C37.5601 10.1317 35.8718 22.0117 35.8818 22.4167C34.9068 30.54 29.1601 31.055 28.1035 31.4067C27.6518 31.5567 23.4601 32.635 18.1968 32.2834Z" fill="url(#paint0_linear)"/>
<path d="M20.3699 7.16162C19.7283 7.16162 19.7283 8.16162 20.3699 8.16995C25.3483 8.20829 29.4483 11.6783 29.4933 18.0433C29.4933 18.715 30.4766 18.7066 30.4683 18.035H30.4666C30.4133 11.1766 25.9366 7.19995 20.3699 7.16162Z" fill="url(#paint1_linear)"/>
<path d="M26.9179 16.9884C26.9029 17.6517 27.8846 17.6834 27.8929 17.0117C27.9746 13.2301 25.6429 10.1151 21.2612 9.78673C20.6196 9.74006 20.5529 10.7484 21.1929 10.7951C24.9929 11.0834 26.9946 13.6767 26.9179 16.9884Z" fill="url(#paint2_linear)"/>
<path d="M25.868 21.29C25.0447 20.8133 24.2064 21.11 23.8597 21.5783L23.1347 22.5167C22.7664 22.9933 22.078 22.93 22.078 22.93C17.0547 21.6017 15.7114 16.345 15.7114 16.345C15.7114 16.345 15.6497 15.6333 16.1097 15.2517L17.0164 14.5017C17.4697 14.1417 17.7564 13.275 17.2947 12.4233C16.0614 10.195 15.233 9.42668 14.8114 8.83668C14.368 8.28168 13.7014 8.15668 13.008 8.53168H12.993C11.5514 9.37501 9.97304 10.9533 10.478 12.5783C11.3397 14.2917 12.923 19.7533 17.9697 23.88C20.3414 25.8317 24.0947 27.8317 25.688 28.2933L25.703 28.3167C27.273 28.84 28.7997 27.2 29.6147 25.715V25.7033C29.9764 24.985 29.8564 24.305 29.328 23.86C28.3914 22.9467 26.978 21.9383 25.868 21.29Z" fill="url(#paint3_linear)"/>
<path d="M21.9483 13.5065C23.5499 13.5998 24.3266 14.4365 24.4099 16.1548C24.4399 16.8265 25.4149 16.7798 25.3849 16.1081C25.2783 13.8648 24.1083 12.6148 22.0016 12.4981C21.3599 12.4598 21.2999 13.4681 21.9483 13.5065Z" fill="url(#paint4_linear)"/>
</g>
<defs>
<linearGradient id="paint0_linear" x1="36.8361" y1="-1.44527" x2="4.14073" y2="40" gradientUnits="userSpaceOnUse">
<stop/>
<stop offset="0.458333" stop-opacity="0.56"/>
<stop offset="0.989583"/>
</linearGradient>
<linearGradient id="paint1_linear" x1="25.1785" y1="7.16162" x2="25.1785" y2="18.5429" gradientUnits="userSpaceOnUse">
<stop/>
<stop offset="0.458333" stop-opacity="0.56"/>
<stop offset="0.989583"/>
</linearGradient>
<linearGradient id="paint2_linear" x1="24.3201" y1="9.78516" x2="24.3201" y2="17.5009" gradientUnits="userSpaceOnUse">
<stop/>
<stop offset="0.458333" stop-opacity="0.56"/>
<stop offset="0.989583"/>
</linearGradient>
<linearGradient id="paint3_linear" x1="20.1021" y1="8.31689" x2="20.1021" y2="28.4162" gradientUnits="userSpaceOnUse">
<stop/>
<stop offset="0.458333" stop-opacity="0.56"/>
<stop offset="0.989583"/>
</linearGradient>
<linearGradient id="paint4_linear" x1="23.4379" y1="12.4971" x2="23.4379" y2="16.6358" gradientUnits="userSpaceOnUse">
<stop/>
<stop offset="0.458333" stop-opacity="0.56"/>
<stop offset="0.989583"/>
</linearGradient>
<clipPath id="clip0">
<rect width="40" height="40" fill="white"/>
</clipPath>
</defs>
</svg>
