<?xml version="1.0" encoding="utf-8"?><svg xmlns="http://www.w3.org/2000/svg" xmlns:xlink="http://www.w3.org/1999/xlink"><symbol viewBox="0 0 36 55" id="arrow-next" xmlns="http://www.w3.org/2000/svg"><path d="M32.983 22.988l-21.51-20.31a6.47 6.47 0 00-10.91 4.7v40.62a6.47 6.47 0 0010.91 4.71l21.51-20.32a6.47 6.47 0 000-9.4z"/></symbol><symbol viewBox="0 0 35 55" id="arrow-prev" xmlns="http://www.w3.org/2000/svg"><path d="M2.58 32.398l21.51 20.31a6.47 6.47 0 0010.91-4.7V7.388a6.47 6.47 0 00-10.91-4.71L2.58 22.998a6.47 6.47 0 000 9.4z"/></symbol><symbol viewBox="0 0 496 496" id="belarus" xmlns="http://www.w3.org/2000/svg"><path d="M0 304.8v64.8c0 27.2 21.6 48.8 48 48.8h400c26.4 0 48-21.6 48-48.8v-64.8H0z"/><path d="M448 77.6H48c-26.4 0-48 21.6-48 48.8v180h496v-180c0-27.2-21.6-48.8-48-48.8z"/><path d="M448 418.4c26.4 0 48-21.6 48-48.8v-64.8H315.2L448 418.4z"/><path d="M448 77.6H48l132 112 136.8 116H496V126.4c0-27.2-21.6-48.8-48-48.8z"/><path d="M448 77.6H48l367.2 112 80.8 24.8v-88.8c0-26.4-21.6-48-48-48zM496 369.6c0 27.2-21.6 48.8-48 48.8H48c-26.4 0-48-21.6-48-48.8"/><path d="M120.8 195.2h-3.2v5.6h-4v5.6h-3.2v-5.6h-3.2v-5.6H104v-5.6h6.4V184h-9.6v5.6h-3.2v5.6h-3.2v5.6h3.2v5.6h3.2v5.6h3.2v5.6h3.2v5.6h3.2v5.6h3.2v-5.6h4v-5.6h3.2V212h3.2v-5.6h-3.2v-5.6h3.2v-11.2h-3.2zm-69.6 22.4h3.2v5.6h3.2v5.6h4v-5.6h3.2v-5.6H68V212h3.2v-5.6h3.2v-5.6h3.2v-5.6h-3.2v-5.6h-3.2V184h-9.6v5.6H68v5.6h-3.2v5.6h-3.2v5.6h-4v-5.6h-3.2v-5.6h-3.2v-5.6H48v11.2h3.2v5.6H48v5.6h3.2zm0-123.2h3.2v-5.6h3.2v-5.6h4v-5.6H48v5.6h3.2v5.6H48V100h3.2zm69.6 16.8h-3.2v5.6h-3.2v5.6h-3.2v5.6H108v5.6h-4V128h-3.2v-5.6h-3.2v-5.6h-3.2v-5.6h-3.2v-5.6H88V100h3.2v-5.6h3.2v-5.6h3.2v-5.6h3.2v-5.6H88v11.2h-4V77.6H71.2v5.6h3.2v5.6h3.2v5.6h3.2v5.6H84v5.6h-3.2v5.6h-3.2v5.6h-3.2v5.6h-3.2v5.6H68v5.6h-3.2V128h-3.2v-5.6h-4v-5.6h-3.2v-5.6h-3.2v-5.6H48v11.2h3.2v5.6H48v16.8h3.2v-5.6h3.2V128h3.2v5.6h3.2v5.6H64v5.6h-2.4v5.6h-4v5.6h-3.2v-5.6h-3.2v-5.6H48v16.8h3.2v5.6H48v11.2h3.2v-5.6h3.2v-5.6h3.2v-5.6h3.2V156H64v-5.6h3.2v5.6h3.2v5.6h3.2v5.6h3.2v5.6H80v5.6h3.2v5.6H88v-5.6h3.2v-5.6h3.2v-5.6h3.2v-5.6h3.2V156h3.2v-5.6h3.2v5.6h3.2v5.6h3.2v5.6h3.2v5.6h3.2v5.6h3.2v-11.2H120v-5.6h3.2v-16.8H120v5.6h-3.2v5.6h-3.2v-5.6h-3.2v-5.6h-3.2v-5.6h3.2v-5.6h3.2V128h3.2v5.6h3.2v5.6h3.2v-16.8H120v-5.6h3.2v-11.2H120v5.6h.8zM84 116.8h4V128h-4v-11.2zm-3.2 28v5.6h-3.2v5.6h-3.2v-5.6h-3.2v-5.6H68v-5.6h3.2v-5.6h3.2V128h3.2v5.6h3.2v5.6H84v5.6h-3.2zm7.2 22.4h-4V156h4v11.2zm16-22.4h-3.2v5.6h-3.2v5.6h-3.2v-5.6h-3.2v-5.6H88v-5.6h3.2v-5.6h3.2V128h3.2v5.6h3.2v5.6h3.2v5.6zm20-61.6v-5.6h-13.6v5.6h3.2v5.6h4v5.6h3.2v5.6h3.2V88.8h-3.2v-5.6zm-66.4 324h-3.2v-5.6h-3.2V396H48v11.2h3.2v5.6H48v5.6h13.6v-5.6h-4zm-6.4-106.4h3.2v-5.6h3.2v-5.6h4v5.6h3.2v5.6H68v5.6h-6.4v5.6h9.6v-5.6h3.2v-5.6h3.2v-5.6h-3.2v-5.6h-3.2V284H68v-5.6h-3.2v-5.6h-3.2v-5.6h-4v5.6h-3.2v5.6h-3.2v5.6H48v5.6h3.2v5.6H48v11.2h3.2zm69.6 100.8h-3.2v5.6h-4v5.6h-3.2v5.6H124v-5.6h-3.2v-5.6h3.2V396h-3.2zM86.4 206.4h-1.6v5.6h-3.2v5.6h-3.2v5.6h-3.2v5.6h-4v5.6H68v28h3.2v5.6h3.2v5.6h3.2v5.6h3.2v5.6H84v5.6h4v-5.6h3.2v-5.6h3.2v-5.6h3.2V268h3.2v-5.6h3.2v-28h-3.2v-5.6h-3.2v-5.6h-3.2v-5.6h-3.2V212H88v-5.6h-1.6zm-12 40.8v3.2h-3.2v-5.6h3.2v2.4zm23.2 1.6v-3.2h3.2v5.6h-3.2v-2.4zM84 217.6h4v5.6h-4v-5.6zm4 60.8h-4v-5.6h4v5.6zm3.2-44v-5.6h3.2V240h-3.2v5.6H88v5.6h3.2v4.8h3.2v11.2h-3.2v-5.6H88V256h-4v5.6h-3.2v5.6h-3.2V256h3.2v-5.6H84v-5.6h-3.2V240h-3.2v-11.2h3.2v5.6H84v5.6h4v-5.6h3.2zm-40 27.2h3.2V256h3.2v-5.6h4v-4.8h-4V240h-3.2v-5.6h-3.2v-5.6H48v38.4h3.2zm69.6-27.2h-3.2v5.6h-4v5.6h-3.2v4.8h3.2v5.6h4v5.6h3.2v5.6h3.2v-38.4h-3.2zm0 88.8h-3.2v5.6h-3.2v5.6h-3.2v5.6H108v5.6h-4V340h-3.2v-5.6h-3.2v-5.6h-3.2v-5.6h-3.2v-5.6H88V312h-4v5.6h-3.2v5.6h-3.2v5.6h-3.2v5.6h-3.2v5.6H68v5.6h-3.2V340h-3.2v-5.6h-4v-5.6h-3.2v-5.6h-3.2v-5.6H48v11.2h3.2v5.6H48v16.8h3.2v-5.6h3.2V340h3.2v5.6h3.2v5.6H64v5.6h-2.4v5.6h-4v5.6h-3.2v-5.6h-3.2v-5.6H48v16.8h3.2v5.6H48v11.2h3.2v-5.6h3.2v-5.6h3.2v-5.6h3.2V368H64v-5.6h3.2v5.6h3.2v5.6h3.2v5.6h3.2v5.6H80v5.6h3.2v5.6H80v5.6h-3.2v5.6h-3.2v5.6h-2.4v5.6H84v-11.2h4v11.2h12.8v-5.6h-3.2v-5.6h-3.2v-5.6h-3.2V396H88v-5.6h3.2v-5.6h3.2v-5.6h3.2v-5.6h3.2V368h3.2v-5.6h3.2v5.6h3.2v5.6h3.2v5.6h3.2v5.6h3.2v5.6h3.2v-11.2H120v-5.6h3.2v-16.8H120v5.6h-3.2v5.6h-3.2v-5.6h-3.2v-5.6h-3.2v-5.6h3.2v-5.6h3.2V340h3.2v5.6h3.2v5.6h3.2v-16.8H120v-5.6h3.2v-11.2H120v5.6h.8zM84 328.8h4V340h-4v-11.2zm-3.2 28v5.6h-3.2v5.6h-3.2v-5.6h-3.2v-5.6H68v-5.6h3.2v-5.6h3.2V340h3.2v5.6h3.2v5.6H84v5.6h-3.2zm7.2 22.4h-4V368h4v11.2zm16-22.4h-3.2v5.6h-3.2v5.6h-3.2v-5.6h-3.2v-5.6H88v-5.6h3.2v-5.6h3.2V340h3.2v5.6h3.2v5.6h3.2v5.6zm16.8-78.4h-3.2v-5.6h-4v-5.6h-3.2v5.6h-3.2v5.6H104v5.6h-3.2v5.6h-3.2v5.6h-3.2v5.6h3.2v5.6h3.2v5.6h9.6v-5.6H104v-5.6h3.2v-5.6h3.2v-5.6h3.2v5.6h4v5.6h3.2v5.6h3.2v-11.2h-3.2v-5.6h3.2V284h-3.2z" opacity=".8"/></symbol><symbol viewBox="0 0 40 40" id="insta" xmlns="http://www.w3.org/2000/svg"><g clip-path="url(#dclip0)"><path d="M39.96 11.76c-.093-2.125-.437-3.586-.929-4.853a9.762 9.762 0 00-2.313-3.547 9.845 9.845 0 00-3.54-2.305c-1.273-.492-2.727-.836-4.852-.93C26.185.024 25.505 0 20.074 0c-5.43 0-6.11.024-8.244.117-2.125.094-3.586.438-4.852.93A9.76 9.76 0 003.43 3.36 9.848 9.848 0 001.125 6.9C.633 8.174.29 9.627.195 11.752.094 13.893.07 14.573.07 20.004c0 5.43.024 6.11.118 8.244.093 2.125.437 3.586.93 4.852a9.864 9.864 0 002.312 3.548 9.845 9.845 0 003.54 2.305c1.274.492 2.727.836 4.853.93 2.133.094 2.813.117 8.244.117 5.43 0 6.11-.023 8.243-.117 2.126-.094 3.587-.438 4.853-.93a10.231 10.231 0 005.853-5.853c.492-1.273.836-2.727.93-4.852.093-2.134.117-2.813.117-8.244 0-5.43-.008-6.11-.102-8.244zm-3.6 16.331c-.086 1.954-.414 3.009-.688 3.712a6.635 6.635 0 01-3.798 3.798c-.703.273-1.765.601-3.711.687-2.11.094-2.743.117-8.08.117s-5.978-.023-8.08-.117c-1.953-.086-3.008-.414-3.711-.687a6.155 6.155 0 01-2.298-1.493 6.218 6.218 0 01-1.492-2.297c-.274-.703-.602-1.766-.688-3.712-.094-2.11-.117-2.742-.117-8.08 0-5.337.023-5.977.117-8.08.086-1.953.414-3.008.688-3.71A6.08 6.08 0 016 5.93a6.21 6.21 0 012.3-1.492c.703-.273 1.766-.601 3.711-.687 2.11-.094 2.743-.117 8.08-.117 5.345 0 5.977.023 8.08.117 1.953.086 3.008.414 3.711.687a6.15 6.15 0 012.297 1.493 6.217 6.217 0 011.493 2.297c.274.703.602 1.766.688 3.712.093 2.11.117 2.742.117 8.08 0 5.337-.023 5.962-.117 8.071z"/><path d="M20.074 9.729C14.401 9.729 9.8 14.33 9.8 20.004s4.603 10.275 10.275 10.275c5.673 0 10.276-4.602 10.276-10.275S25.747 9.729 20.074 9.729zm0 16.94a6.667 6.667 0 010-13.33 6.666 6.666 0 010 13.33zM33.155 9.322a2.399 2.399 0 11-4.798 0 2.399 2.399 0 014.798 0z"/></g><defs><linearGradient id="dpaint0_linear" x1="43" y1="-12.5" x2="3.5" y2="46" gradientUnits="userSpaceOnUse"><stop/><stop offset=".344" stop-opacity=".4"/><stop offset="1"/></linearGradient><linearGradient id="dpaint1_linear" x1="20.074" y1="9.729" x2="20.074" y2="30.279" gradientUnits="userSpaceOnUse"><stop/><stop offset=".344" stop-opacity=".4"/><stop offset="1"/></linearGradient><linearGradient id="dpaint2_linear" x1="30.756" y1="6.923" x2="30.756" y2="11.721" gradientUnits="userSpaceOnUse"><stop/><stop offset=".344" stop-opacity=".4"/><stop offset="1"/></linearGradient><clipPath id="dclip0"><path d="M0 0h40v40H0z"/></clipPath></defs></symbol><symbol viewBox="0 0 31 26" id="news-arr" xmlns="http://www.w3.org/2000/svg"><path d="M30.294 11.912L19.46 1.078a1.63 1.63 0 00-1.161-.479c-.44 0-.852.17-1.161.479l-.984.984a1.63 1.63 0 00-.48 1.16c0 .44.171.867.48 1.175l6.32 6.335H2.395c-.905 0-1.62.709-1.62 1.614v1.391c0 .906.715 1.686 1.62 1.686h20.152l-6.392 6.37c-.309.309-.479.71-.479 1.15 0 .44.17.846.48 1.155l.983.981c.31.31.721.478 1.161.478.44 0 .852-.17 1.161-.48l10.834-10.834c.31-.31.48-.725.48-1.165a1.63 1.63 0 00-.48-1.166z"/></symbol><symbol viewBox="0 0 20 20" id="no-view" xmlns="http://www.w3.org/2000/svg"><path d="M12.81 4.36l-1.77 1.78a4 4 0 00-4.9 4.9l-2.76 2.75C2.06 12.79.96 11.49.2 10a11 11 0 0112.6-5.64zm3.8 1.85c1.33 1 2.43 2.3 3.2 3.79a11 11 0 01-12.62 5.64l1.77-1.78a4 4 0 004.9-4.9l2.76-2.75zm-.25-3.99l1.42 1.42L3.64 17.78l-1.42-1.42L16.36 2.22z"/></symbol><symbol viewBox="0 0 58 58" id="okey" xmlns="http://www.w3.org/2000/svg"><path d="M29 0C13.01 0 0 13.009 0 29s13.01 29 29 29 29-13.009 29-29S44.99 0 29 0zm0 55.77C14.24 55.77 2.23 43.76 2.23 29S14.24 2.23 29 2.23 55.77 14.24 55.77 29 43.76 55.77 29 55.77z"/><path d="M42.666 17.105L25.523 36.392 15.196 28.13a1.116 1.116 0 00-1.393 1.742l11.154 8.923a1.114 1.114 0 001.531-.13l17.846-20.077a1.115 1.115 0 10-1.669-1.481z"/></symbol><symbol viewBox="0 0 60 61" id="play-button" xmlns="http://www.w3.org/2000/svg"><g clip-path="url(#hclip0)"><path d="M30 .92c-16.543 0-30 13.458-30 30s13.457 30 30 30 30-13.458 30-30-13.457-30-30-30zm0 57.5c-15.164 0-27.5-12.337-27.5-27.5 0-15.164 12.336-27.5 27.5-27.5s27.5 12.336 27.5 27.5c0 15.163-12.336 27.5-27.5 27.5z"/><path d="M41.926 29.869l-17.5-11.25A1.249 1.249 0 0022.5 19.67v22.5a1.249 1.249 0 001.926 1.05l17.5-11.25a1.252 1.252 0 000-2.101zM25 39.879V21.96l13.938 8.96L25 39.88z"/></g><defs><clipPath id="hclip0"><path transform="translate(0 .92)" d="M0 0h60v60H0z"/></clipPath></defs></symbol><symbol viewBox="0 0 13 13" id="post" xmlns="http://www.w3.org/2000/svg"><path d="M4.47 6.975a.374.374 0 00-.527 0 .37.37 0 000 .525l1.264 1.258c-.097.18-.152.384-.152.602 0 .705.576 1.279 1.284 1.279.709 0 1.285-.574 1.285-1.279a1.26 1.26 0 00-.152-.602l2.55-2.538a.37.37 0 000-.525.374.374 0 00-.528 0l-2.55 2.538a1.281 1.281 0 00-1.21 0L4.471 6.975zM6.879 9.36a.538.538 0 01-1.077 0 .538.538 0 011.077 0z"/><path d="M11.51 13H1.49A1.49 1.49 0 010 11.51V2.573c0-.822.668-1.49 1.49-1.49h10.02c.822 0 1.49.668 1.49 1.49v8.937A1.49 1.49 0 0111.51 13zM1.49 1.896a.678.678 0 00-.677.677v8.937c0 .374.303.678.677.678h10.02a.678.678 0 00.678-.678V2.573a.678.678 0 00-.678-.677H1.49z"/><path d="M12.594 5.146H.406a.406.406 0 010-.813h12.188a.406.406 0 010 .813zM3.115 3.25a.406.406 0 01-.407-.406V.406a.406.406 0 01.813 0v2.438a.406.406 0 01-.406.406zm6.77 0a.406.406 0 01-.406-.406V.406a.406.406 0 01.813 0v2.438a.406.406 0 01-.407.406z"/></symbol><symbol viewBox="0 0 16 16" id="quit" xmlns="http://www.w3.org/2000/svg"><path fill-rule="evenodd" d="M11.992 8.994V6.996H7.995v-2h3.997V2.999l3.998 2.998-3.998 2.998zm-1.998 2.998H5.996V2.998L2 1h7.995v2.998h1V1c0-.55-.45-.999-1-.999H.999A1.001 1.001 0 000 1v11.372c0 .39.22.73.55.91L5.996 16v-3.008h3.998c.55 0 1-.45 1-1V7.996h-1v3.998z"/></symbol><symbol viewBox="0 0 512 512" id="russia" xmlns="http://www.w3.org/2000/svg"><path d="M0 85.33v341.332h512V85.33z"/><path d="M0 85.333h512V426.67H0z"/><path d="M0 85.333h512v113.775H0zM0 312.884h512v113.775H0z"/></symbol><symbol viewBox="0 0 40 40" id="telega" xmlns="http://www.w3.org/2000/svg"><g clip-path="url(#lclip0)"><path d="M15.695 25.302l-.661 9.306c.946 0 1.356-.406 1.848-.895l4.438-4.242 9.197 6.735c1.687.94 2.875.445 3.33-1.551l6.037-28.287.001-.001c.535-2.494-.901-3.469-2.545-2.857L1.857 17.095c-2.422.94-2.385 2.29-.412 2.902l9.072 2.821L31.589 9.633c.991-.656 1.893-.293 1.151.364L15.695 25.302z"/></g><defs><linearGradient id="lpaint0_linear" x1="35.235" y1="6.64" x2="20" y2="36.666" gradientUnits="userSpaceOnUse"><stop/><stop offset=".719" stop-opacity=".58"/><stop offset=".99"/></linearGradient><clipPath id="lclip0"><path d="M0 0h40v40H0z"/></clipPath></defs></symbol><symbol viewBox="0 0 24 24" id="user" xmlns="http://www.w3.org/2000/svg"><path fill-rule="evenodd" clip-rule="evenodd" d="M12 12.5a5.5 5.5 0 100-11 5.5 5.5 0 000 11zm0 1.5a7 7 0 100-14 7 7 0 000 14z"/><path fill-rule="evenodd" clip-rule="evenodd" d="M22.484 24c.01-.166.016-.333.016-.5 0-4.789-4.507-9-10.5-9s-10.5 4.211-10.5 9c0 .167.006.334.016.5H.013A9.345 9.345 0 010 23.5C0 17.701 5.373 13 12 13s12 4.701 12 10.5c0 .168-.005.334-.013.5h-1.503z"/></symbol><symbol viewBox="0 0 40 40" id="viber" xmlns="http://www.w3.org/2000/svg"><path fill-rule="evenodd" clip-rule="evenodd" d="M33.265 6.68A18.461 18.461 0 0020.12 1.23C9.878 1.23 1.542 9.566 1.538 19.811a18.549 18.549 0 002.48 9.29l-2.636 9.63 9.85-2.585a18.563 18.563 0 008.88 2.262h.008c10.242 0 18.579-8.336 18.582-18.582A18.468 18.468 0 0033.265 6.68zM20.12 35.27h-.006a15.425 15.425 0 01-7.861-2.153l-.564-.335-5.846 1.534 1.56-5.7-.367-.584a15.406 15.406 0 01-2.36-8.22c.002-8.515 6.931-15.443 15.45-15.443a15.34 15.34 0 0110.92 4.53 15.358 15.358 0 014.52 10.926c-.005 8.516-6.933 15.445-15.446 15.445zm8.472-11.568c-.464-.232-2.747-1.355-3.173-1.51-.425-.155-.735-.232-1.044.232-.31.465-1.2 1.511-1.47 1.82-.271.31-.542.35-1.006.117-.465-.232-1.96-.723-3.734-2.305-1.38-1.23-2.312-2.751-2.583-3.216-.27-.465-.003-.692.203-.947.503-.625 1.006-1.279 1.161-1.589.155-.31.077-.58-.039-.813-.116-.232-1.044-2.518-1.431-3.448-.377-.905-.76-.782-1.045-.797-.27-.013-.58-.016-.89-.016-.31 0-.812.116-1.238.581-.426.465-1.625 1.588-1.625 3.874 0 2.285 1.664 4.493 1.896 4.803.232.31 3.274 5 7.932 7.01 1.107.48 1.972.765 2.647.979 1.112.353 2.124.303 2.924.184.892-.134 2.747-1.124 3.134-2.208.387-1.085.387-2.014.27-2.208-.115-.194-.425-.31-.889-.543z"/><defs><linearGradient id="npaint0_linear" x1="20.042" y1="1.23" x2="1.408" y2="46.54" gradientUnits="userSpaceOnUse"><stop/><stop offset=".563" stop-opacity=".45"/><stop offset=".958"/></linearGradient></defs></symbol><symbol viewBox="0 0 20 20" id="view" xmlns="http://www.w3.org/2000/svg"><path d="M.2 10a11 11 0 0119.6 0A11 11 0 01.2 10zm9.8 4a4 4 0 100-8 4 4 0 000 8zm0-2a2 2 0 110-4 2 2 0 010 4z"/></symbol><symbol viewBox="0 0 40 40" id="whatsap" xmlns="http://www.w3.org/2000/svg"><g clip-path="url(#pclip0)"><path d="M38.592 23.155c1.193-10.045-.573-16.387-3.76-19.255l.002-.002C29.69-1 12.32-1.725 6.166 4.118 3.403 6.977 2.43 11.172 2.323 16.365c-.106 5.195-.233 14.927 8.835 17.567h.009l-.008 4.031s-.062 1.634.981 1.962c1.194.387 1.733-.372 5.445-4.805 6.207.538 10.973-.695 11.515-.875 1.253-.42 8.345-1.358 9.492-11.09zm-20.395 9.128s-3.928 4.899-5.15 6.17c-.4.414-.838.375-.832-.445 0-.538.03-6.693.03-6.693-7.688-2.203-7.235-10.49-7.152-14.825.084-4.337.877-7.888 3.217-10.28 5.399-5.062 20.627-3.93 24.507-.283 4.743 4.205 3.055 16.085 3.065 16.49-.975 8.123-6.722 8.638-7.778 8.99-.452.15-4.644 1.228-9.907.876z"/><path d="M20.37 7.162c-.642 0-.642 1 0 1.008 4.978.038 9.078 3.508 9.123 9.873 0 .672.984.664.975-.008h-.001C30.413 11.177 25.937 7.2 20.37 7.162z"/><path d="M26.918 16.988c-.015.664.967.695.975.024.082-3.782-2.25-6.897-6.632-7.225-.641-.047-.708.961-.068 1.008 3.8.288 5.802 2.882 5.725 6.193zM25.868 21.29c-.823-.477-1.662-.18-2.008.288l-.725.939c-.369.476-1.057.413-1.057.413-5.023-1.328-6.367-6.585-6.367-6.585s-.061-.712.399-1.093l.906-.75c.454-.36.74-1.227.279-2.079-1.234-2.228-2.062-2.996-2.484-3.586-.443-.555-1.11-.68-1.803-.305h-.015c-1.442.843-3.02 2.421-2.515 4.046.862 1.714 2.445 7.175 7.492 11.302 2.371 1.952 6.125 3.952 7.718 4.413l.015.024c1.57.523 3.097-1.117 3.912-2.602v-.012c.361-.718.241-1.398-.287-1.843-.937-.913-2.35-1.922-3.46-2.57z"/><path d="M21.948 13.507c1.602.093 2.379.93 2.462 2.648.03.671 1.005.625.975-.047-.107-2.243-1.277-3.493-3.383-3.61-.642-.038-.702.97-.054 1.009z"/></g><defs><linearGradient id="ppaint0_linear" x1="36.836" y1="-1.445" x2="4.141" y2="40" gradientUnits="userSpaceOnUse"><stop/><stop offset=".458" stop-opacity=".56"/><stop offset=".99"/></linearGradient><linearGradient id="ppaint1_linear" x1="25.178" y1="7.162" x2="25.178" y2="18.543" gradientUnits="userSpaceOnUse"><stop/><stop offset=".458" stop-opacity=".56"/><stop offset=".99"/></linearGradient><linearGradient id="ppaint2_linear" x1="24.32" y1="9.785" x2="24.32" y2="17.501" gradientUnits="userSpaceOnUse"><stop/><stop offset=".458" stop-opacity=".56"/><stop offset=".99"/></linearGradient><linearGradient id="ppaint3_linear" x1="20.102" y1="8.317" x2="20.102" y2="28.416" gradientUnits="userSpaceOnUse"><stop/><stop offset=".458" stop-opacity=".56"/><stop offset=".99"/></linearGradient><linearGradient id="ppaint4_linear" x1="23.438" y1="12.497" x2="23.438" y2="16.636" gradientUnits="userSpaceOnUse"><stop/><stop offset=".458" stop-opacity=".56"/><stop offset=".99"/></linearGradient><clipPath id="pclip0"><path d="M0 0h40v40H0z"/></clipPath></defs></symbol></svg>